<?xml version="1.0" encoding="utf-8"?>
<!-- Generator: Adobe Illustrator 24.0.1, SVG Export Plug-In . SVG Version: 6.00 Build 0)  -->
<svg version="1.1" id="Layer_1" xmlns="http://www.w3.org/2000/svg" xmlns:xlink="http://www.w3.org/1999/xlink" x="0px" y="0px"
	 viewBox="0 0 2000 2000" style="enable-background:new 0 0 2000 2000;" xml:space="preserve">
<style type="text/css">
	.st0{display:none;fill:#FFFFFF;stroke:#000000;stroke-miterlimit:10;}
	.st1{fill:#0E2F72;}
</style>
<rect class="st0" width="2000" height="2000"/>
<g>
	<path class="st1" d="M524.22,1214.77l-0.25,0.09c-14.58,4.86-18.05,16.64-16.37,36.76c1.64,18.31-0.03,23.33-6.81,25.6l-0.26,0.09
		c-5.78,1.93-12.2-1.8-15.21-10.85c-2.31-6.91-2.22-14.2-0.09-22.46c0.33-1.51,0.29-2.89-0.22-4.4c-1.34-4.02-5.57-6.24-9.6-4.9
		c-3.02,1-4.6,3.35-5.02,5.44c-2.64,9.68-2.55,19.57,1.14,30.63c5.83,17.47,20.45,26.56,35.54,21.52l0.25-0.09
		c16.22-5.41,18.22-17.81,16.5-38.05c-1.68-17.6,0.54-22.24,6.83-24.35l0.25-0.09c6.53-2.18,13.07,2.34,16.26,11.89
		c3.19,9.55,2.52,18.44-0.83,27.66c-0.41,1.26-0.58,2.85,0.13,4.99c1.35,4.02,5.58,6.23,9.6,4.89c2.51-0.84,4.24-2.81,4.91-4.99
		c4.01-12.24,4.01-24.8,0.02-36.74C554.81,1218.96,540.68,1209.28,524.22,1214.77z"/>
	<path class="st1" d="M536.98,1187.3c4.22-0.44,7.17-4.08,6.74-8.29c-0.36-3.43-2.49-6.01-5.92-6.98l-18.59-5.93l-4.64-44.8
		l16.47-9.29c3.28-1.8,5.24-4.67,4.85-8.49c-0.45-4.36-4.22-7.29-8.57-6.84c-1.05,0.11-2.21,0.5-3.33,1.27l-72.85,42.17
		c-3.89,2.27-6.07,5.69-5.6,10.3l0.09,0.8c0.47,4.6,3.32,7.64,7.59,9.07l79.96,26.33C534.57,1187.15,535.8,1187.42,536.98,1187.3z
		 M465.24,1149.06l35.6-20.07l3.36,32.41L465.24,1149.06z"/>
	<path class="st1" d="M527.79,1068.97c4.45,0.66,8.36-2.25,9.01-6.72c0.66-4.45-2.23-8.49-6.7-9.14l-54.91-8.04l36.68-17.39
		c2.88-1.32,4.76-3.18,5.17-6.07c0.44-3.01-0.82-5.34-3.19-7.43l-30.4-27.34l55.05,8.07c4.32,0.64,8.53-2.5,9.17-6.83
		c0.68-4.58-2.35-8.65-6.8-9.29l-76.81-11.26c-4.45-0.66-8.64,2.35-9.32,6.93l-0.25,1.7c-0.47,3.28,0.61,5.84,3.12,7.96l39.56,34.31
		l-47.58,21.41c-2.73,1.21-4.91,3.3-5.42,6.84l-0.25,1.7c-0.68,4.59,2.48,8.67,6.93,9.32L527.79,1068.97z"/>
	<path class="st1" d="M550.8,862.07l-41.65-17.46c-4.15-1.75-8.83,0.17-10.58,4.32c-1.79,4.27,0.13,8.95,4.28,10.7l42.38,17.77
		c15.75,6.61,20.26,18.13,14.67,31.43c-5.63,13.44-17.49,18.09-33.37,11.43l-41.77-17.51c-4.15-1.75-8.83,0.17-10.58,4.32
		c-1.79,4.27,0.13,8.96,4.28,10.7l42.38,17.77c24.79,10.4,43.56,1.61,52.87-20.62C583.11,892.57,576.33,872.78,550.8,862.07z"/>
	<path class="st1" d="M608.36,844.04l31.66-44.5c2.3-3.23,1.63-7.78-1.71-10.17c-3.25-2.3-7.86-1.52-10.17,1.71L601.17,829
		l-20.3-14.45l23.13-32.5c2.3-3.25,1.63-7.78-1.61-10.09c-3.35-2.38-7.97-1.6-10.27,1.64l-23.13,32.51l-19.66-13.98l26.59-37.36
		c2.3-3.25,1.63-7.78-1.71-10.17c-3.25-2.31-7.86-1.53-10.17,1.71l-31.27,43.95c-2.68,3.78-1.84,8.76,1.93,11.46l62.2,44.25
		C600.69,848.66,605.68,847.82,608.36,844.04z"/>
	<path class="st1" d="M657.38,767.61c3.16,3.4,8.22,3.57,11.61,0.41l36.62-34.14c3-2.79,3.16-7.47,0.37-10.48
		c-2.8-3-7.48-3.17-10.48-0.37l-30.71,28.63l-48.04-51.54c-3.07-3.29-8.12-3.47-11.42-0.4c-3.39,3.16-3.57,8.22-0.49,11.5
		L657.38,767.61z"/>
	<path class="st1" d="M770.35,679.38c1.81,4.13,6.34,5.91,10.47,4.11c4.13-1.8,6.04-6.39,4.23-10.52l-22.23-50.89l34.18,21.95
		c2.64,1.74,5.23,2.34,7.89,1.17c2.79-1.22,4.11-3.53,4.63-6.64l7.13-40.29l22.29,51.01c1.76,4.01,6.64,5.93,10.65,4.17
		c4.25-1.85,6.09-6.57,4.29-10.7l-31.09-71.18c-1.81-4.13-6.58-6.09-10.83-4.24l-1.57,0.69c-3.04,1.33-4.65,3.61-5.11,6.86
		l-8.2,51.75l-43.38-29.08c-2.46-1.67-5.39-2.42-8.67-0.98l-1.58,0.69c-4.25,1.85-6.04,6.68-4.24,10.81L770.35,679.38z"/>
	<path class="st1" d="M898.32,641.26c4.39-0.99,7.1-5.26,6.1-9.66l-17.13-75.98c-0.99-4.39-5.27-7.09-9.66-6.1
		c-4.53,1.02-7.22,5.29-6.23,9.69l17.13,75.98C889.53,639.57,893.81,642.28,898.32,641.26z"/>
	<path class="st1" d="M948.32,631.74l50-3.31c4.1-0.27,7.18-3.8,6.91-7.89c-0.27-4.1-3.8-7.19-7.89-6.91l-41.92,2.77l-4.67-70.35
		c-0.29-4.5-4.1-7.83-8.59-7.54c-4.64,0.31-7.97,4.12-7.67,8.61l5.1,76.96C939.89,628.72,943.69,632.05,948.32,631.74z"/>
	<path class="st1" d="M1039.47,630.46l49.67,6.36c4.07,0.53,7.78-2.34,8.3-6.42c0.53-4.08-2.34-7.77-6.41-8.3l-41.65-5.34
		l8.96-69.91c0.57-4.46-2.53-8.47-6.99-9.05c-4.59-0.58-8.6,2.51-9.18,6.98l-9.8,76.48
		C1031.78,625.87,1034.88,629.87,1039.47,630.46z"/>
	<path class="st1" d="M1128.55,646.57l51.65,17.77c3.75,1.29,7.92-0.64,9.26-4.52c1.29-3.76-0.77-7.98-4.52-9.27l-44-15.14
		l8.11-23.56l37.73,12.98c3.76,1.29,7.94-0.64,9.23-4.4c1.34-3.88-0.72-8.1-4.49-9.39l-37.73-12.98l7.85-22.81l43.36,14.92
		c3.76,1.29,7.94-0.64,9.27-4.52c1.29-3.76-0.77-7.98-4.53-9.27l-51.01-17.55c-4.39-1.51-8.94,0.71-10.45,5.1l-24.84,72.2
		C1121.94,640.51,1124.17,645.06,1128.55,646.57z"/>
	<path class="st1" d="M1229.45,680.76l13.01-21.25l17.52,10.73l4.19,36.3c0.27,3.12,1.4,5.83,4.57,7.77
		c3.38,2.07,8.26,1.48,10.61-2.36c1.32-2.15,1.32-4.17,0.99-6.7l-3.44-28.39c12.63,3.23,24.69,0.04,32.44-12.61l0.14-0.23
		c4.22-6.89,5.45-14.22,3.89-21.08c-2.04-8.1-8.03-15.81-17.98-21.9l-28.26-17.32c-3.96-2.43-8.87-1.24-11.3,2.72l-40.3,65.79
		c-2.35,3.84-1.17,8.77,2.79,11.19C1222.17,685.78,1227.09,684.6,1229.45,680.76z M1266.28,620.62l20.24,12.4
		c10.29,6.3,13.56,14.68,8.36,23.15l-0.14,0.23c-4.92,8.02-14.43,9.35-24.38,3.26l-20.35-12.46L1266.28,620.62z"/>
	<path class="st1" d="M1398.07,804.51l0.2-0.17c11.76-9.89,10.66-22.11,1.69-40.18c-8.26-16.42-8.55-21.71-3.08-26.32l0.2-0.17
		c4.67-3.91,12-2.81,18.14,4.49c4.69,5.59,7.3,12.39,8.35,20.85c0.24,1.52,0.79,2.79,1.81,4.01c2.73,3.25,7.48,3.75,10.73,1.02
		c2.43-2.05,3.05-4.81,2.67-6.91c-1.11-9.97-4.83-19.14-12.34-28.05c-11.85-14.1-28.79-17.17-40.96-6.94l-0.19,0.17
		c-13.09,11-10.39,23.27-1.33,41.45c8.03,15.74,7.69,20.88,2.6,25.14l-0.19,0.17c-5.27,4.43-13.03,2.63-19.49-5.07
		c-6.48-7.71-9.13-16.22-9.41-26.02c-0.07-1.33-0.51-2.87-1.95-4.59c-2.73-3.25-7.48-3.75-10.73-1.02c-2.03,1.7-2.9,4.17-2.72,6.45
		c0.77,12.85,5.39,24.54,13.5,34.17C1368.1,811.88,1384.79,815.68,1398.07,804.51z"/>
	<path class="st1" d="M1490.26,860.24c1.97,3.6,6.59,4.85,10.19,2.88c3.6-1.97,5.04-6.53,3.06-10.13l-29.62-54.06
		c-2.04-3.71-6.65-4.96-10.25-2.99c-3.6,1.97-5.03,6.53-3,10.25l10.83,19.76l-61.61,33.75c-3.95,2.17-5.31,7.14-3.14,11.1
		c2.17,3.95,7.08,5.49,11.04,3.32l61.61-33.75L1490.26,860.24z"/>
	<path class="st1" d="M1444.44,964.26c6.73,23.3,24.43,34.48,51.05,26.8l43.43-12.53c4.32-1.25,6.77-5.67,5.52-10.01
		c-1.28-4.46-5.71-6.91-10.04-5.66l-44.19,12.74c-16.43,4.74-27.17-1.4-31.17-15.29c-4.04-14.01,2.29-25.08,18.84-29.86l43.56-12.56
		c4.34-1.24,6.78-5.67,5.53-10.01c-1.28-4.45-5.71-6.9-10.05-5.65l-44.2,12.74C1446.87,922.45,1437.76,941.08,1444.44,964.26z"/>
	<path class="st1" d="M1462.24,1040.51l1.17,26.35c1.3,29.13,22.45,48.36,48.54,47.19l0.26-0.01c26.09-1.16,45.19-22.18,43.9-51.31
		l-1.17-26.35c-0.2-4.64-3.95-8.05-8.57-7.85l-76.27,3.4C1465.46,1032.15,1462.04,1035.88,1462.24,1040.51z M1540.47,1045.12
		l0.81,18.28c0.87,19.46-11.93,32.78-30.08,33.59l-0.26,0.01c-18.15,0.81-31.82-11.32-32.69-30.79l-0.81-18.27L1540.47,1045.12z"/>
	<path class="st1" d="M1545.8,1157.37l-77.28-10.21c-4.46-0.58-8.49,2.49-9.09,7.1c-0.59,4.46,2.49,8.49,6.96,9.07l77.27,10.21
		c4.46,0.58,8.49-2.49,9.07-6.96C1553.34,1161.97,1550.26,1157.95,1545.8,1157.37z"/>
	<path class="st1" d="M1500.11,1206.84l-0.25-0.09c-24.79-8.16-51.52,3.96-60.43,31.02c-8.91,27.05,5.55,53.03,30.35,61.19
		l0.25,0.08c24.79,8.17,51.53-3.96,60.43-31.01C1539.37,1240.97,1524.91,1215,1500.11,1206.84z M1516.33,1263.09
		c-5.77,17.5-24.09,25.27-41.2,19.64l-0.26-0.09c-17.11-5.63-26.94-22.39-21.18-39.89c5.76-17.49,23.96-25.3,41.08-19.67l0.25,0.08
		C1512.14,1228.79,1522.09,1245.6,1516.33,1263.09z"/>
	<path class="st1" d="M542.2,1322.12c-5.92,0-10.72,4.8-10.72,10.72c0,5.92,4.8,10.72,10.72,10.72c5.92,0,10.72-4.8,10.72-10.72
		C552.91,1326.92,548.12,1322.12,542.2,1322.12z"/>
	<path class="st1" d="M1457.8,1322.12c-5.92,0-10.71,4.8-10.71,10.72c0,5.92,4.8,10.72,10.71,10.72c5.92,0,10.72-4.8,10.72-10.72
		C1468.52,1326.92,1463.72,1322.12,1457.8,1322.12z"/>
	<g>
		<path class="st1" d="M1000,708.57c-207.79,0-376.85,169.05-376.85,376.84c0,18.71,1.82,36.96,4.47,54.95h79.79l158.4-122.17h38.84
			l127.66-116.29l138.14,148.62l118.83-94.23l83.82,78.88C1348.4,851.11,1190.72,708.57,1000,708.57z M767.01,1000.07
			c-37.4,0-67.82-30.42-67.82-67.82s30.42-67.82,67.82-67.82s67.83,30.42,67.83,67.82S804.41,1000.07,767.01,1000.07z"/>
		<path class="st1" d="M767.01,886.49c-25.22,0-45.75,20.53-45.75,45.76c0,25.23,20.53,45.76,45.75,45.76
			c25.24,0,45.76-20.53,45.76-45.76C812.77,907.02,792.24,886.49,767.01,886.49z"/>
	</g>
	<path class="st1" d="M1376.84,1085.42c0,18.71-1.83,36.96-4.47,54.95h-118.36l-64.37-69.32l72.27-64.1l32.44,23.06l-0.22-35.09
		l81.8,72.55C1376.21,1073.46,1376.84,1079.36,1376.84,1085.42z"/>
	<path class="st1" d="M874.71,1218.63c0.86,15.29,18.93,22.05,69.12,25.83c47.41,3.58,67.02,8.3,75.05,11.32
		c-20.33,11.74-102.64,35.39-312.58,65.16c-36.53-45.45-62.85-99.41-75.17-158.52H999.9
		C873.47,1192.61,874.29,1210.89,874.71,1218.63z"/>
	<polygon class="st1" points="768.45,1140.37 837.34,1085.39 829.18,1118.94 904.65,1058.58 969.86,1040.05 1034.18,947.7 
		1220.38,1140.37 	"/>
	<path class="st1" d="M723.64,1340.74c322.36-46.5,321.71-73.37,321.29-86.37c-0.51-15.5-16.94-25.69-99.44-31.91
		c-24.16-1.82-36.92-4.28-43.53-6.17c25.84-14.36,121-37.98,205.38-53.86h36.7c-39.66,12.79-70.39,28.14-71.03,45.17
		c-0.66,17.46,21.79,24.01,30.24,26.47c39.36,11.48,63.59,28.99,63.25,45.68c-0.41,19.61-33.32,72.98-327.19,146.02
		C795.42,1404.96,756.25,1376.01,723.64,1340.74z"/>
	<path class="st1" d="M1000,1462.26c-44.5,0-87.03-8.16-126.69-22.38c210.78-54.55,314.15-106.88,315.26-159.67
		c0.8-38.26-49.24-58.59-79.13-67.32c-7.37-2.15-11.21-4.05-13.13-5.26c11.14-11.36,70.77-31.3,135.98-45.2h136.59
		C1333.22,1333.41,1181.4,1462.26,1000,1462.26z"/>
</g>
</svg>
